PathFileType	4	(X/Y/Z)	Patient4_TMGait_0pt8_01_right_42.trc.trc
DataRate	CameraRate	NumFrames	NumMarkers	Units	OrigDataRate	OrigDataStartFrame	OrigNumFrames
89.171974522293	89.171974522293	4	33	mm	89.171974522293	124	       141
Frame#	Time	Sacral			L.Shoulder			Chest			R.Shoulder			Neck			R.ASIS			L.ASIS			R.Thigh.Superior			R.Thigh.Lateral			R.Thigh.Inferior			R.Patella			L.Thigh.Superior			L.Thigh.Lateral			L.Thigh.Inferior			L.Patella			L.Shank.Superior			L.Shank.Lateral			L.Shank.Inferior			R.Shank.Superior			R.Shank.Lateral			R.Shank.Inferior			R.Heel			R.Midfoot.Superior			R.Midfoot.Lateral			R.Toe			L.Heel			L.Midfoot.Lateral			L.Midfoot.Superior			L.Toe			L.Elbow			L.Wrist			R.Elbow			R.Wrist			
		X1	Y1	Z1	X2	Y2	Z2	X3	Y3	Z3	X4	Y4	Z4	X5	Y5	Z5	X6	Y6	Z6	X7	Y7	Z7	X8	Y8	Z8	X9	Y9	Z9	X10	Y10	Z10	X11	Y11	Z11	X12	Y12	Z12	X13	Y13	Z13	X14	Y14	Z14	X15	Y15	Z15	X16	Y16	Z16	X17	Y17	Z17	X18	Y18	Z18	X19	Y19	Z19	X20	Y20	Z20	X21	Y21	Z21	X22	Y22	Z22	X23	Y23	Z23	X24	Y24	Z24	X25	Y25	Z25	X26	Y26	Z26	X27	Y27	Z27	X28	Y28	Z28	X29	Y29	Z29	X30	Y30	Z30	X31	Y31	Z31	X32	Y32	Z32	X33	Y33	Z33	

124	48.559357142857	919.235341285355	985.184772510970	443.197136157642	1106.160692287552	1415.012785934165	274.678872554213	1195.832353337358	1345.277369793991	443.168077491363	1098.003987799168	1416.998698213726	610.152566816357	1078.244347290547	1474.644773473324	428.644059167537	1140.285260389876	921.330604767372	573.632247558371	1139.701674215141	944.501601077611	296.812435884998	1216.404302190465	749.957544584935	548.314868655156	1167.175121017565	625.805328540683	615.385005340615	1260.606839001808	592.322177344966	540.339484381897	1292.185434152359	513.158534950572	553.773495263483	1126.949741534365	715.134180685873	320.750573999734	1000.212914740296	629.519776703962	259.481486998138	1053.232244242336	530.725911491913	322.554447008512	1032.583684700892	463.901639044720	331.601907245989	993.132614004654	401.225735807996	324.579729227171	880.346978823487	306.946735501555	276.012969221891	908.659641582435	187.840901314400	347.910345193143	1284.294963635249	423.330350092054	563.643260381415	1236.998592063350	305.555204848281	622.703576823319	1313.986567270480	225.878954749817	573.224718498950	1233.404892129871	40.085283105091	543.100904281417	1391.421153308579	117.205389940361	585.421636330920	1314.769688805901	42.830356519982	619.414326853212	1516.018172395397	84.214806527641	616.284092656161	760.032577563651	44.440039639783	394.876278761246	833.572050159837	37.178895836249	314.866863492282	918.909542820513	96.243367056073	340.620321289754	1045.251993795175	41.283877835121	311.615573924690	1219.455187937019	1117.596308704709	106.390443047541	1476.854669127522	1116.584055071866	126.997231561738	923.483213222167	1122.802824826826	709.439666309173	849.885990053320	873.795199746975	726.003398739558	
125	48.570571428571	921.402989112348	983.751279717812	446.602082788718	1106.614034393052	1413.699221007974	277.359393426094	1196.949861976431	1344.455011433986	445.697629029983	1099.281322686826	1416.069169427128	612.874365283554	1079.096402914417	1473.456001736766	431.444610862504	1143.156396120854	919.972663041481	575.682694147252	1141.286360786207	943.221164200725	298.629700450590	1219.566858865713	748.548005475616	549.713324014763	1168.885446270522	624.123469519502	615.622707592157	1262.480583355670	591.140913905775	540.852181907849	1292.957255125004	510.772017705716	553.442784201206	1128.014893685041	713.765657255210	321.973650679454	1000.540343242781	628.648324071120	261.413552971413	1053.768730400748	529.202023338345	323.645812657388	1032.817508680058	461.625115810196	332.440766561906	991.550823980991	399.622217750858	325.499953893291	876.495353711506	308.049127228126	276.987274231012	902.397785344424	187.911603450593	347.961495148676	1284.062581754168	420.323406483332	563.229912429666	1234.898912215009	303.126408007168	621.950376579410	1310.045385458735	222.299799074711	571.907985015710	1224.671521116835	39.940587168009	541.809946598461	1385.078462942970	112.337920727217	583.414083442954	1306.279324878429	40.707930928935	618.067136585928	1508.958262375476	75.648194332848	613.959869415136	751.174962575710	46.631813217121	394.357419937056	824.746654321642	37.980241901738	314.606201499121	910.718014608621	96.431500663834	340.148930814529	1036.393624459420	40.733269849079	311.472319377174	1218.237059468512	1115.674078058068	108.930803825031	1474.652817629711	1124.831468613593	131.415463728205	921.670866858424	1124.254670756982	711.552320567595	846.198902242156	875.658841564291	727.060891976930	
126	48.581785714286	923.532463456797	982.731127650279	450.042368873026	1107.210601690626	1412.725443127032	280.073332831019	1198.186841713106	1343.932918194113	448.267256896108	1100.735458429619	1415.443332296711	615.676856697643	1080.089133517323	1472.653714225344	434.315970829651	1145.988110799516	919.096409965392	577.782973742050	1142.854164355456	942.220953288486	300.502065706125	1222.688125387132	747.648381978364	551.140078819152	1170.909643801113	623.209131508576	616.294145110758	1264.450348809623	590.530960953113	541.607538922293	1293.826477552758	508.888854348440	553.629382707699	1129.437169156107	712.719492439858	323.334266013577	1001.461977057537	627.847097141896	263.497748375105	1055.206163190057	527.805564138242	324.797257429184	1034.073116081032	459.317350950496	333.185209252895	990.722201146204	398.076370953020	326.395685071208	873.253910096048	309.538471597085	277.988913577530	896.574402744466	188.298977841761	347.898639932381	1283.845433795449	417.895724601241	563.311792264690	1232.907549203911	301.379640595578	621.993816084652	1305.938090031947	219.304066737205	571.178246154703	1215.576733755042	40.139277188955	541.161052687480	1378.313266725165	108.132349515107	582.024609578702	1297.494138600216	39.025082277725	617.312614873138	1501.503212633955	67.939516312365	612.059922161442	742.455059804495	49.632691920891	393.735739149510	815.968908645720	39.153365739502	314.268353775423	902.806100585414	96.701519556234	339.501675832433	1027.481269798826	40.182754342814	311.328996329138	1216.407044492847	1113.533703073558	111.757311685550	1471.623446104700	1131.810240234628	135.814876499748	921.147615639430	1125.112276634379	713.730851607980	844.296154621108	876.756449373546	728.391942359176	
127	48.593000000000	925.576656780457	982.178029142559	453.466049817908	1107.959247085102	1412.170904266016	282.800568256909	1199.531878896971	1343.754282860745	450.855074268297	1102.352235482709	1415.165763693679	618.529330682182	1081.210560679234	1472.292010551169	437.225836842960	1148.707402713789	918.761542190770	579.974532729395	1144.354649902585	941.558588392968	302.466198819167	1225.668979007596	747.309522163289	552.629267109401	1173.188148998645	623.069659293716	617.425850631596	1266.435259740677	590.464223130754	542.630920180954	1294.700167833385	507.530871503045	554.356813032382	1131.229028464555	712.048037458245	324.902291826740	1003.077803065439	627.113222418058	265.710750341845	1057.667780610055	526.568398954564	326.018723601884	1036.470490716216	457.013675976669	333.808151042557	990.773051452908	396.621692492385	327.239560806681	870.761087853979	311.473942465442	278.998527271221	891.317473874763	189.082955253526	347.718612756153	1283.566163524326	416.078795040827	563.863137901548	1230.987677792494	300.321245892518	622.778794959397	1301.679997707155	216.954296826077	570.976594949060	1206.377853772396	40.559325583002	541.029521110932	1371.202735520087	104.745338659553	581.187132545123	1288.616842914067	37.808094299265	617.063679257018	1493.764419940166	61.513146308287	610.640806462641	733.980270240861	53.630506035855	393.027952888384	807.294451101125	40.840418558011	313.865920198786	895.264035432090	97.092152668303	338.678162269446	1018.506366159510	39.630768224054	311.197119137461	1213.910979732978	1111.238754353824	114.883601359764	1467.857868949701	1137.449791345701	140.169264063869	921.987408039864	1125.337424967364	715.998733694275	844.258240721519	877.056881353779	730.017101695248	
